<?xml version="1.0" encoding="UTF-8" standalone="no"?>
<!-- Created with Inkscape (http://www.inkscape.org/) -->

<svg
   xmlns:dc="http://purl.org/dc/elements/1.1/"
   xmlns:cc="http://creativecommons.org/ns#"
   xmlns:rdf="http://www.w3.org/1999/02/22-rdf-syntax-ns#"
   xmlns:svg="http://www.w3.org/2000/svg"
   xmlns="http://www.w3.org/2000/svg"
   xmlns:sodipodi="http://sodipodi.sourceforge.net/DTD/sodipodi-0.dtd"
   xmlns:inkscape="http://www.inkscape.org/namespaces/inkscape"
   width="136.76671mm"
   height="174.13745mm"
   viewBox="0 0 136.76671 174.13745"
   version="1.1"
   id="svg1193"
   inkscape:version="0.92.3 (5aff6ba, 2018-11-25)"
   sodipodi:docname="report-icon-external.svg">
  <defs
     id="defs1187" />
  <sodipodi:namedview
     id="base"
     pagecolor="#ffffff"
     bordercolor="#666666"
     borderopacity="1.0"
     inkscape:pageopacity="0.0"
     inkscape:pageshadow="2"
     inkscape:zoom="0.35"
     inkscape:cx="-230.11464"
     inkscape:cy="326.22151"
     inkscape:document-units="mm"
     inkscape:current-layer="layer1"
     showgrid="false"
     fit-margin-top="0"
     fit-margin-left="0"
     fit-margin-right="0"
     fit-margin-bottom="0"
     inkscape:window-width="1853"
     inkscape:window-height="1025"
     inkscape:window-x="67"
     inkscape:window-y="27"
     inkscape:window-maximized="1" />
  <metadata
     id="metadata1190">
    <rdf:RDF>
      <cc:Work
         rdf:about="">
        <dc:format>image/svg+xml</dc:format>
        <dc:type
           rdf:resource="http://purl.org/dc/dcmitype/StillImage" />
        <dc:title></dc:title>
      </cc:Work>
    </rdf:RDF>
  </metadata>
  <g
     inkscape:label="Layer 1"
     inkscape:groupmode="layer"
     id="layer1"
     transform="translate(-38.205928,-61.008659)">
    <g
       id="g16-8-5-9"
       style="fill:#8f96ac;fill-opacity:1;stroke:none;stroke-width:0;stroke-miterlimit:4;stroke-dasharray:none;stroke-opacity:1"
       transform="matrix(3.7050521,0,0,3.7050521,10.257931,51.746029)">
      <g
         id="g8-8-4-3"
         style="fill:#8f96ac;fill-opacity:1;stroke:none;stroke-width:0;stroke-miterlimit:4;stroke-dasharray:none;stroke-opacity:1">
        <g
           id="g6-5-8-9"
           style="fill:#8f96ac;fill-opacity:1;stroke:none;stroke-width:0;stroke-miterlimit:4;stroke-dasharray:none;stroke-opacity:1">
          <path
             d="M 43.956787,49.5 H 8.0432129 c -0.2763672,0 -0.5,-0.223633 -0.5,-0.5 V 11.070801 c 0,-0.133789 0.053711,-0.262207 0.1489258,-0.355957 L 15.876221,2.644043 C 15.969971,2.5517578 16.095947,2.5 16.227295,2.5 h 27.729492 c 0.276367,0 0.5,0.2236328 0.5,0.5 v 46 c 0,0.276367 -0.223633,0.5 -0.5,0.5 z M 8.5432129,48.5 H 43.456787 V 3.5 H 16.432373 L 8.5432128,11.279785 V 48.5 Z"
             id="path4-0-1-2"
             style="fill:#8f96ac;fill-opacity:1;stroke:none;stroke-width:0;stroke-miterlimit:4;stroke-dasharray:none;stroke-opacity:1"
             inkscape:connector-curvature="0" />
        </g>
      </g>
      <g
         id="g14-9-2-8"
         style="fill:#8f96ac;fill-opacity:1;stroke:none;stroke-width:0;stroke-miterlimit:4;stroke-dasharray:none;stroke-opacity:1">
        <g
           id="g12-63-8-3"
           style="fill:#8f96ac;fill-opacity:1;stroke:none;stroke-width:0;stroke-miterlimit:4;stroke-dasharray:none;stroke-opacity:1">
          <path
             d="M 16.227295,11.570801 H 8.0432129 c -0.2763672,0 -0.5,-0.223633 -0.5,-0.5 0,-0.276367 0.2236328,-0.5 0.5,-0.5 H 15.727295 V 3 c 0,-0.2763672 0.223633,-0.5 0.5,-0.5 0.276367,0 0.5,0.2236328 0.5,0.5 v 8.070801 c 0,0.276367 -0.223633,0.5 -0.5,0.5 z"
             id="path10-8-9-0"
             style="fill:#8f96ac;fill-opacity:1;stroke:none;stroke-width:0;stroke-miterlimit:4;stroke-dasharray:none;stroke-opacity:1"
             inkscape:connector-curvature="0" />
        </g>
      </g>
    </g>
    <g
       id="g4618-5-3-1"
       transform="matrix(0.11907872,0,0,0.12138283,100.61453,81.066237)">
      <g
         id="g3-6-6-7">
        <path
           sodipodi:nodetypes="scccccccccccccccccs"
           inkscape:connector-curvature="0"
           id="path5-1-8-8"
           d="m 17.66,397.246 c -3.457,0 -6.741,-2.047 -8.151,-5.436 -1.875,-4.5 0.25,-9.668 4.75,-11.543 l 102.508,-42.716 51.586,-128.97 c 1.103,-2.754 3.518,-4.771 6.422,-5.366 2.926,-0.582 5.918,0.31 8.018,2.406 l 72.931,72.927 88.595,-98.651 c 3.293,-3.586 8.879,-3.837 12.474,-0.543 3.595,3.297 3.837,8.879 0.543,12.474 l -94.828,105.448 c -1.63,1.775 -3.91,2.806 -6.319,2.862 -2.229,0.039 -4.733,-0.884 -6.431,-2.586 l -69.983,-69.983 -47.991,119.987 c -0.884,2.202 -2.612,3.957 -4.802,4.866 l -105.93,44.139 c -1.113,0.465 -2.264,0.685 -3.392,0.685 z"
           style="fill:#8f96ac" />
        <path
           sodipodi:nodetypes="sccccccs"
           inkscape:connector-curvature="0"
           id="path7-15-0-9"
           d="m 354.418,192.763 c -3.401,0 -6.643,-1.978 -8.09,-5.293 -1.956,-4.466 0.082,-9.673 4.547,-11.625 L 490.806,115.5 c 4.466,-1.956 9.673,0.082 11.625,4.547 1.956,4.466 -0.082,9.673 -4.547,11.625 l -139.931,60.345 c -1.151,0.504 -2.354,0.746 -3.535,0.746 z"
           style="fill:#8f96ac" />
      </g>
      <circle
         id="circle9-9-2-1"
         r="17.655001"
         cy="123.586"
         cx="494.345"
         style="fill:#4f6bc5;fill-opacity:1" />
      <circle
         id="circle11-8-1-5"
         r="17.655001"
         cy="291.31"
         cx="256"
         style="fill:#6c99a8;fill-opacity:1" />
      <circle
         id="circle13-4-0-4"
         r="17.655001"
         cy="211.862"
         cx="176.552"
         style="fill:#49a57f;fill-opacity:1" />
      <circle
         id="circle15-8-5-9"
         r="17.655001"
         cy="344.276"
         cx="123.586"
         style="fill:#65899e;fill-opacity:1" />
      <circle
         id="circle17-10-1-2"
         r="17.655001"
         cy="388.414"
         cx="17.655001"
         style="fill:#e6b473;fill-opacity:1" />
      <circle
         id="circle29-3-1-5"
         r="17.655001"
         cy="185.379"
         cx="353.103"
         style="fill:#f3d466;fill-opacity:1" />
      <g
         id="g51-0-0-7" />
      <g
         id="g53-4-8-4" />
      <g
         id="g55-4-5-9" />
      <g
         id="g57-44-0-9" />
      <g
         id="g59-7-6-4" />
      <g
         id="g61-6-4-5" />
      <g
         id="g63-3-6-9" />
      <g
         id="g65-17-2-3" />
      <g
         id="g67-5-5-5" />
      <g
         id="g69-9-8-7" />
      <g
         id="g71-62-6-0" />
      <g
         id="g73-17-2-8" />
      <g
         id="g75-8-8-1" />
      <g
         id="g77-5-4-9" />
      <g
         id="g79-74-7-9" />
    </g>
    <path
       style="opacity:1;fill:#8f96ac;fill-opacity:1;fill-rule:nonzero;stroke:#8f96ac;stroke-width:4.0177021;stroke-linecap:round;stroke-linejoin:round;stroke-miterlimit:4;stroke-dasharray:none;stroke-dashoffset:0;stroke-opacity:1;paint-order:fill markers stroke"
       id="path5454-2-7"
       sodipodi:type="arc"
       sodipodi:cx="84.544716"
       sodipodi:cy="183.18777"
       sodipodi:rx="31.537264"
       sodipodi:ry="29.047478"
       sodipodi:start="0"
       sodipodi:end="4.7158796"
       d="M 116.08198,183.18777 A 31.537264,29.047478 0 0 1 96.588073,210.03383 31.537264,29.047478 0 0 1 62.205616,203.69156 31.537264,29.047478 0 0 1 55.439779,172.00157 31.537264,29.047478 0 0 1 84.6548,154.14047 l -0.110084,29.0473 z" />
    <path
       style="opacity:1;fill:#49a57f;fill-opacity:1;fill-rule:nonzero;stroke:#49a57f;stroke-width:4.0177021;stroke-linecap:round;stroke-linejoin:round;stroke-miterlimit:4;stroke-dasharray:none;stroke-dashoffset:0;stroke-opacity:1;paint-order:fill markers stroke"
       id="path5471-4-8"
       sodipodi:type="arc"
       sodipodi:cx="90.630577"
       sodipodi:cy="177.65489"
       sodipodi:rx="27.110981"
       sodipodi:ry="25.17448"
       sodipodi:start="4.7248224"
       sodipodi:end="6.2637257"
       d="m 90.967651,152.48236 a 27.110981,25.17448 0 0 1 26.768779,24.68268 l -27.105853,0.48985 z" />
    <g
       id="g4700-6-3-25"
       transform="matrix(1.3841867,0,0,1.3841867,-40.885793,-15.999502)"
       style="fill:#8f96ac;fill-opacity:1;stroke:none;stroke-width:0;stroke-miterlimit:4;stroke-dasharray:none;stroke-opacity:1">
      <g
         id="g4662-7-9-3"
         style="fill:#8f96ac;fill-opacity:1;stroke:none;stroke-width:0;stroke-miterlimit:4;stroke-dasharray:none;stroke-opacity:1">
        <g
           id="g4646-3-6-9-4"
           transform="translate(54.924098,59.470326)"
           style="fill:#8f96ac;fill-opacity:1;stroke:none;stroke-width:0;stroke-miterlimit:4;stroke-dasharray:none;stroke-opacity:1">
          <g
             id="g4644-5-3-3-9"
             style="fill:#8f96ac;fill-opacity:1;stroke:none;stroke-width:0;stroke-miterlimit:4;stroke-dasharray:none;stroke-opacity:1">
            <path
               inkscape:connector-curvature="0"
               d="M 38.690674,35.975098 H 13.309326 c -0.276367,0 -0.5,-0.223633 -0.5,-0.5 0,-0.276368 0.223633,-0.5 0.5,-0.5 h 25.381348 c 0.276367,0 0.5,0.223632 0.5,0.5 0,0.276367 -0.223633,0.5 -0.5,0.5 z"
               id="path4642-6-9-3-0"
               style="fill:#8f96ac;fill-opacity:1;stroke:none;stroke-width:0;stroke-miterlimit:4;stroke-dasharray:none;stroke-opacity:1" />
          </g>
        </g>
        <g
           id="g4652-2-4-8-2"
           transform="translate(54.924098,59.470326)"
           style="fill:#8f96ac;fill-opacity:1;stroke:none;stroke-width:0;stroke-miterlimit:4;stroke-dasharray:none;stroke-opacity:1">
          <g
             id="g4650-9-8-0-0"
             style="fill:#8f96ac;fill-opacity:1;stroke:none;stroke-width:0;stroke-miterlimit:4;stroke-dasharray:none;stroke-opacity:1">
            <path
               inkscape:connector-curvature="0"
               d="M 38.690674,30.244141 H 13.309326 c -0.276367,0 -0.5,-0.223633 -0.5,-0.5 0,-0.276368 0.223633,-0.5 0.5,-0.5 h 25.381348 c 0.276367,0 0.5,0.223632 0.5,0.5 0,0.276367 -0.223633,0.5 -0.5,0.5 z"
               id="path4648-1-12-5-1"
               style="fill:#8f96ac;fill-opacity:1;stroke:none;stroke-width:0;stroke-miterlimit:4;stroke-dasharray:none;stroke-opacity:1" />
          </g>
        </g>
        <g
           id="g4646-3-6-9-0-9"
           transform="translate(54.923414,65.200776)"
           style="fill:#8f96ac;fill-opacity:1;stroke:none;stroke-width:0;stroke-miterlimit:4;stroke-dasharray:none;stroke-opacity:1">
          <g
             id="g4644-5-3-3-4-6"
             style="fill:#8f96ac;fill-opacity:1;stroke:none;stroke-width:0;stroke-miterlimit:4;stroke-dasharray:none;stroke-opacity:1">
            <path
               inkscape:connector-curvature="0"
               d="M 38.690674,35.975098 H 13.309326 c -0.276367,0 -0.5,-0.223633 -0.5,-0.5 0,-0.276368 0.223633,-0.5 0.5,-0.5 h 25.381348 c 0.276367,0 0.5,0.223632 0.5,0.5 0,0.276367 -0.223633,0.5 -0.5,0.5 z"
               id="path4642-6-9-3-6-2"
               style="fill:#8f96ac;fill-opacity:1;stroke:none;stroke-width:0;stroke-miterlimit:4;stroke-dasharray:none;stroke-opacity:1" />
          </g>
        </g>
      </g>
      <flowRoot
         xml:space="preserve"
         id="flowRoot4744-9-6-1"
         style="font-style:normal;font-variant:normal;font-weight:normal;font-stretch:normal;font-size:26.66666603px;line-height:1.25;font-family:Verdana;-inkscape-font-specification:Verdana;letter-spacing:0px;word-spacing:0px;fill:#8f96ac;fill-opacity:1;stroke:none;stroke-width:0;stroke-miterlimit:4;stroke-dasharray:none;stroke-opacity:1"><flowRegion
           id="flowRegion4746-3-6-2"
           style="fill:#8f96ac;fill-opacity:1;stroke:none;stroke-width:0;stroke-miterlimit:4;stroke-dasharray:none;stroke-opacity:1"><rect
             id="rect4748-9-4-07"
             width="36.493645"
             height="31.536016"
             x="-26.027542"
             y="-30.434322"
             style="fill:#8f96ac;fill-opacity:1;stroke:none;stroke-width:0;stroke-miterlimit:4;stroke-dasharray:none;stroke-opacity:1" /></flowRegion><flowPara
           id="flowPara4750-0-0-3" /></flowRoot>    </g>
    <g
       id="g4700-6-3-2-1"
       transform="matrix(1.1927302,0,0,1.3841867,45.48503,38.35967)"
       style="fill:#8f96ac;fill-opacity:1;stroke:none;stroke-width:0;stroke-miterlimit:4;stroke-dasharray:none;stroke-opacity:1">
      <g
         id="g4662-7-9-6-1"
         style="fill:#8f96ac;fill-opacity:1;stroke:none;stroke-width:0;stroke-miterlimit:4;stroke-dasharray:none;stroke-opacity:1">
        <g
           id="g4646-3-6-9-7-9"
           transform="translate(54.924098,59.470326)"
           style="fill:#8f96ac;fill-opacity:1;stroke:none;stroke-width:0;stroke-miterlimit:4;stroke-dasharray:none;stroke-opacity:1">
          <g
             id="g4644-5-3-3-5-0"
             style="fill:#8f96ac;fill-opacity:1;stroke:none;stroke-width:0;stroke-miterlimit:4;stroke-dasharray:none;stroke-opacity:1">
            <path
               inkscape:connector-curvature="0"
               d="M 38.690674,35.975098 H 13.309326 c -0.276367,0 -0.5,-0.223633 -0.5,-0.5 0,-0.276368 0.223633,-0.5 0.5,-0.5 h 25.381348 c 0.276367,0 0.5,0.223632 0.5,0.5 0,0.276367 -0.223633,0.5 -0.5,0.5 z"
               id="path4642-6-9-3-69-5"
               style="fill:#8f96ac;fill-opacity:1;stroke:none;stroke-width:0;stroke-miterlimit:4;stroke-dasharray:none;stroke-opacity:1" />
          </g>
        </g>
        <g
           id="g4652-2-4-8-8-6"
           transform="translate(54.924098,59.470326)"
           style="fill:#8f96ac;fill-opacity:1;stroke:none;stroke-width:0;stroke-miterlimit:4;stroke-dasharray:none;stroke-opacity:1">
          <g
             id="g4650-9-8-0-7-7"
             style="fill:#8f96ac;fill-opacity:1;stroke:none;stroke-width:0;stroke-miterlimit:4;stroke-dasharray:none;stroke-opacity:1">
            <path
               inkscape:connector-curvature="0"
               d="M 38.690674,30.244141 H 13.309326 c -0.276367,0 -0.5,-0.223633 -0.5,-0.5 0,-0.276368 0.223633,-0.5 0.5,-0.5 h 25.381348 c 0.276367,0 0.5,0.223632 0.5,0.5 0,0.276367 -0.223633,0.5 -0.5,0.5 z"
               id="path4648-1-12-5-2-7"
               style="fill:#8f96ac;fill-opacity:1;stroke:none;stroke-width:0;stroke-miterlimit:4;stroke-dasharray:none;stroke-opacity:1" />
          </g>
        </g>
        <g
           id="g4646-3-6-9-0-8-4"
           transform="translate(54.923414,65.200776)"
           style="fill:#8f96ac;fill-opacity:1;stroke:none;stroke-width:0;stroke-miterlimit:4;stroke-dasharray:none;stroke-opacity:1">
          <g
             id="g4644-5-3-3-4-2-0"
             style="fill:#8f96ac;fill-opacity:1;stroke:none;stroke-width:0;stroke-miterlimit:4;stroke-dasharray:none;stroke-opacity:1">
            <path
               inkscape:connector-curvature="0"
               d="M 38.690674,35.975098 H 13.309326 c -0.276367,0 -0.5,-0.223633 -0.5,-0.5 0,-0.276368 0.223633,-0.5 0.5,-0.5 h 25.381348 c 0.276367,0 0.5,0.223632 0.5,0.5 0,0.276367 -0.223633,0.5 -0.5,0.5 z"
               id="path4642-6-9-3-6-9-6"
               style="fill:#8f96ac;fill-opacity:1;stroke:none;stroke-width:0;stroke-miterlimit:4;stroke-dasharray:none;stroke-opacity:1" />
          </g>
        </g>
      </g>
      <flowRoot
         xml:space="preserve"
         id="flowRoot4744-9-6-9-4"
         style="font-style:normal;font-variant:normal;font-weight:normal;font-stretch:normal;font-size:26.66666603px;line-height:1.25;font-family:Verdana;-inkscape-font-specification:Verdana;letter-spacing:0px;word-spacing:0px;fill:#8f96ac;fill-opacity:1;stroke:none;stroke-width:0;stroke-miterlimit:4;stroke-dasharray:none;stroke-opacity:1"><flowRegion
           id="flowRegion4746-3-6-6-7"
           style="fill:#8f96ac;fill-opacity:1;stroke:none;stroke-width:0;stroke-miterlimit:4;stroke-dasharray:none;stroke-opacity:1"><rect
             id="rect4748-9-4-0-4"
             width="36.493645"
             height="31.536016"
             x="-26.027542"
             y="-30.434322"
             style="fill:#8f96ac;fill-opacity:1;stroke:none;stroke-width:0;stroke-miterlimit:4;stroke-dasharray:none;stroke-opacity:1" /></flowRegion><flowPara
           id="flowPara4750-0-0-2-8" /></flowRoot>    </g>
  </g>
</svg>
