<?xml version="1.0" encoding="UTF-8" standalone="no"?><!DOCTYPE svg PUBLIC "-//W3C//DTD SVG 1.1//EN" "http://www.w3.org/Graphics/SVG/1.1/DTD/svg11.dtd"><svg width="100%" height="100%" viewBox="0 0 301 301" version="1.1" xmlns="http://www.w3.org/2000/svg" xmlns:xlink="http://www.w3.org/1999/xlink" xml:space="preserve" xmlns:serif="http://www.serif.com/" style="fill-rule:evenodd;clip-rule:evenodd;"><g id="layer1"><path id="use22354-6" d="M53.941,93.96l-21.267,9.408l16.438,25.33l21.268,-9.408l-16.439,-25.33Z" style="fill:#ffff5a;stroke:#feffff;stroke-width:0.17px;"/><path id="use22356-7" d="M70.38,119.29l-21.268,9.408l16.439,25.33l21.267,-9.408l-16.438,-25.33Z" style="fill:#fbf05e;stroke:#feffff;stroke-width:0.17px;"/><path id="use22358-7" d="M86.818,144.62l-21.267,9.408l16.438,25.33l21.267,-9.408l-16.438,-25.33Z" style="fill:#f7e162;stroke:#feffff;stroke-width:0.17px;"/><path id="use22360-4" d="M103.256,169.95l-21.267,9.408l16.438,25.33l21.268,-9.408l-16.439,-25.33Z" style="fill:#f3d466;stroke:#feffff;stroke-width:0.17px;"/><path id="use22362-0" d="M119.695,195.28l-21.268,9.408l16.439,25.33l21.267,-9.408l-16.438,-25.33Z" style="fill:#eec86b;stroke:#feffff;stroke-width:0.17px;"/><path id="use22364-6" d="M75.209,84.551l-21.268,9.409l16.439,25.33l21.267,-9.409l-16.438,-25.33Z" style="fill:#fbf05e;stroke:#feffff;stroke-width:0.17px;"/><path id="use22366-4" d="M91.647,109.881l-21.267,9.409l16.438,25.33l21.267,-9.409l-16.438,-25.33Z" style="fill:#f7e162;stroke:#feffff;stroke-width:0.17px;"/><path id="use22368-7" d="M108.085,135.211l-21.267,9.409l16.438,25.33l21.268,-9.409l-16.439,-25.33Z" style="fill:#f3d466;stroke:#feffff;stroke-width:0.17px;"/><path id="use22370-4" d="M124.524,160.541l-21.268,9.409l16.439,25.33l21.267,-9.409l-16.438,-25.33Z" style="fill:#eec86b;stroke:#feffff;stroke-width:0.17px;"/><path id="use22372-8" d="M140.962,185.871l-21.267,9.409l16.438,25.33l21.267,-9.409l-16.438,-25.33Z" style="fill:#eabe6f;stroke:#feffff;stroke-width:0.17px;"/><path id="use22374-5" d="M96.476,75.143l-21.268,9.408l16.439,25.33l21.267,-9.408l-16.438,-25.33Z" style="fill:#f7e162;stroke:#feffff;stroke-width:0.17px;"/><path id="use22376-8" d="M112.914,100.473l-21.267,9.408l16.438,25.33l21.267,-9.408l-16.438,-25.33Z" style="fill:#f3d466;stroke:#feffff;stroke-width:0.17px;"/><path id="use22378-2" d="M129.352,125.803l-21.267,9.408l16.439,25.33l21.267,-9.408l-16.439,-25.33Z" style="fill:#eec86b;stroke:#feffff;stroke-width:0.17px;"/><path id="use22380-6" d="M145.791,151.133l-21.267,9.408l16.438,25.33l21.267,-9.408l-16.438,-25.33Z" style="fill:#eabe6f;stroke:#feffff;stroke-width:0.17px;"/><path id="use22382-0" d="M162.229,176.463l-21.267,9.408l16.438,25.33l21.268,-9.408l-16.439,-25.33Z" style="fill:#e6b473;stroke:#feffff;stroke-width:0.17px;"/><path id="use22384-6" d="M117.743,65.734l-21.267,9.409l16.438,25.33l21.268,-9.409l-16.439,-25.33Z" style="fill:#f3d466;stroke:#feffff;stroke-width:0.17px;"/><path id="use22386-6" d="M134.182,91.064l-21.268,9.409l16.439,25.33l21.267,-9.409l-16.438,-25.33Z" style="fill:#eec86b;stroke:#feffff;stroke-width:0.17px;"/><path id="use22388-4" d="M150.62,116.394l-21.267,9.409l16.438,25.33l21.267,-9.409l-16.438,-25.33Z" style="fill:#eabe6f;stroke:#feffff;stroke-width:0.17px;"/><path id="use22390-6" d="M167.058,141.724l-21.267,9.409l16.438,25.33l21.268,-9.409l-16.439,-25.33Z" style="fill:#e6b473;stroke:#feffff;stroke-width:0.17px;"/><path id="use22392-2" d="M183.497,167.054l-21.268,9.409l16.439,25.33l21.267,-9.409l-16.438,-25.33Z" style="fill:#e2ac77;stroke:#feffff;stroke-width:0.17px;"/><path id="use22394-8" d="M139.01,56.326l-21.267,9.408l16.438,25.33l21.268,-9.408l-16.439,-25.33Z" style="fill:#eec86b;stroke:#feffff;stroke-width:0.17px;"/><path id="use22396-9" d="M155.449,81.656l-21.268,9.408l16.439,25.33l21.267,-9.408l-16.438,-25.33Z" style="fill:#eabe6f;stroke:#feffff;stroke-width:0.17px;"/><path id="use22398-6" d="M171.887,106.986l-21.267,9.408l16.438,25.33l21.267,-9.408l-16.438,-25.33Z" style="fill:#e6b473;stroke:#feffff;stroke-width:0.17px;"/><path id="use22400-0" d="M188.325,132.316l-21.267,9.408l16.439,25.33l21.267,-9.408l-16.439,-25.33Z" style="fill:#e2ac77;stroke:#feffff;stroke-width:0.17px;"/><path id="use22402-7" d="M204.764,157.646l-21.267,9.408l16.438,25.33l21.267,-9.408l-16.438,-25.33Z" style="fill:#dea57b;stroke:#feffff;stroke-width:0.17px;"/><path id="use22619-9" d="M93.619,74.929l-24.718,5.464l9.646,25.918l24.718,-5.463l-9.646,-25.919Z" style="fill:#49a57f;stroke:#feffff;stroke-width:0.17px;"/><path id="use22621-9" d="M103.265,100.848l-24.718,5.463l9.645,25.919l24.718,-5.463l-9.645,-25.919Z" style="fill:#4fa491;stroke:#feffff;stroke-width:0.17px;"/><path id="use22623-7" d="M112.91,126.766l-24.718,5.464l9.645,25.919l24.718,-5.464l-9.645,-25.919Z" style="fill:#56a2a0;stroke:#feffff;stroke-width:0.17px;"/><path id="use22625-8" d="M122.555,152.685l-24.718,5.464l9.646,25.919l24.718,-5.464l-9.646,-25.919Z" style="fill:#5d95a0;stroke:#feffff;stroke-width:0.17px;"/><path id="use22627-2" d="M132.201,178.604l-24.718,5.464l9.645,25.919l24.718,-5.464l-9.645,-25.919Z" style="fill:#65899e;stroke:#feffff;stroke-width:0.17px;"/><path id="use22629-5" d="M118.337,69.465l-24.718,5.464l9.646,25.919l24.718,-5.464l-9.646,-25.919Z" style="fill:#4fa491;stroke:#feffff;stroke-width:0.17px;"/><path id="use22631-3" d="M127.983,95.384l-24.718,5.464l9.645,25.919l24.718,-5.464l-9.645,-25.919Z" style="fill:#56a2a0;stroke:#feffff;stroke-width:0.17px;"/><path id="use22633-4" d="M137.628,121.303l-24.718,5.463l9.645,25.919l24.718,-5.463l-9.645,-25.919Z" style="fill:#5d95a0;stroke:#feffff;stroke-width:0.17px;"/><path id="use22635-9" d="M147.273,147.222l-24.718,5.463l9.646,25.919l24.718,-5.464l-9.646,-25.918Z" style="fill:#65899e;stroke:#feffff;stroke-width:0.17px;"/><path id="use22637-0" d="M156.919,173.141l-24.718,5.463l9.645,25.919l24.718,-5.464l-9.645,-25.918Z" style="fill:#6d829b;stroke:#feffff;stroke-width:0.17px;"/><path id="use22639-2" d="M143.055,64.001l-24.718,5.464l9.646,25.919l24.718,-5.464l-9.646,-25.919Z" style="fill:#56a2a0;stroke:#feffff;stroke-width:0.17px;"/><path id="use22641-0" d="M152.701,89.92l-24.718,5.464l9.645,25.919l24.718,-5.464l-9.645,-25.919Z" style="fill:#5d95a0;stroke:#feffff;stroke-width:0.17px;"/><path id="use22643-1" d="M162.346,115.839l-24.718,5.464l9.645,25.919l24.718,-5.464l-9.645,-25.919Z" style="fill:#65899e;stroke:#feffff;stroke-width:0.17px;"/><path id="use22645-9" d="M171.991,141.758l-24.718,5.464l9.646,25.919l24.718,-5.464l-9.646,-25.919Z" style="fill:#6d829b;stroke:#feffff;stroke-width:0.17px;"/><path id="use22647-6" d="M181.637,167.677l-24.718,5.464l9.645,25.918l24.718,-5.463l-9.645,-25.919Z" style="fill:#757e98;stroke:#feffff;stroke-width:0.17px;"/><path id="use22649-2" d="M167.773,58.538l-24.718,5.463l9.646,25.919l24.718,-5.463l-9.646,-25.919Z" style="fill:#5d95a0;stroke:#feffff;stroke-width:0.17px;"/><path id="use22651-1" d="M177.419,84.457l-24.718,5.463l9.645,25.919l24.718,-5.464l-9.645,-25.918Z" style="fill:#65899e;stroke:#feffff;stroke-width:0.17px;"/><path id="use22653-2" d="M187.064,110.375l-24.718,5.464l9.645,25.919l24.718,-5.464l-9.645,-25.919Z" style="fill:#6d829b;stroke:#feffff;stroke-width:0.17px;"/><path id="use22655-0" d="M196.709,136.294l-24.718,5.464l9.646,25.919l24.718,-5.464l-9.646,-25.919Z" style="fill:#757e98;stroke:#feffff;stroke-width:0.17px;"/><path id="use22657-7" d="M206.355,162.213l-24.718,5.464l9.645,25.919l24.718,-5.464l-9.645,-25.919Z" style="fill:#7c7e95;stroke:#feffff;stroke-width:0.17px;"/><path id="use22659-3" d="M192.491,53.074l-24.718,5.464l9.646,25.919l24.718,-5.464l-9.646,-25.919Z" style="fill:#65899e;stroke:#feffff;stroke-width:0.17px;"/><path id="use22661-1" d="M202.137,78.993l-24.718,5.464l9.645,25.918l24.718,-5.463l-9.645,-25.919Z" style="fill:#6d829b;stroke:#feffff;stroke-width:0.17px;"/><path id="use22663-1" d="M211.782,104.912l-24.718,5.463l9.645,25.919l24.718,-5.464l-9.645,-25.918Z" style="fill:#757e98;stroke:#feffff;stroke-width:0.17px;"/><path id="use22665-9" d="M221.428,130.83l-24.719,5.464l9.646,25.919l24.718,-5.464l-9.645,-25.919Z" style="fill:#7c7e95;stroke:#feffff;stroke-width:0.17px;"/><path id="use22667-0" d="M231.073,156.749l-24.718,5.464l9.645,25.919l24.718,-5.464l-9.645,-25.919Z" style="fill:#868493;stroke:#feffff;stroke-width:0.17px;"/><path id="use22130-8" d="M135.89,67.236l-26.295,0.584l3.937,26.282l26.295,-0.585l-3.937,-26.281Z" style="fill:#473dd7;stroke:#feffff;stroke-width:0.17px;"/><path id="use22132-3" d="M139.827,93.517l-26.295,0.585l3.937,26.281l26.295,-0.585l-3.937,-26.281Z" style="fill:#4348d1;stroke:#feffff;stroke-width:0.17px;"/><path id="use22134-0" d="M143.764,119.798l-26.295,0.585l3.937,26.282l26.295,-0.585l-3.937,-26.282Z" style="fill:#495bcb;stroke:#feffff;stroke-width:0.17px;"/><path id="use22136-1" d="M147.701,146.08l-26.295,0.584l3.937,26.282l26.295,-0.585l-3.937,-26.281Z" style="fill:#4f6bc5;stroke:#feffff;stroke-width:0.17px;"/><path id="use22138-7" d="M151.638,172.361l-26.295,0.585l3.937,26.281l26.295,-0.584l-3.937,-26.282Z" style="fill:#5479c0;stroke:#feffff;stroke-width:0.17px;"/><path id="use22140-8" d="M162.184,66.651l-26.294,0.585l3.937,26.281l26.294,-0.585l-3.937,-26.281Z" style="fill:#4348d1;stroke:#feffff;stroke-width:0.17px;"/><path id="use22142-9" d="M166.121,92.932l-26.294,0.585l3.937,26.281l26.294,-0.584l-3.937,-26.282Z" style="fill:#495bcb;stroke:#feffff;stroke-width:0.17px;"/><path id="use22144-1" d="M170.058,119.214l-26.294,0.584l3.937,26.282l26.294,-0.585l-3.937,-26.281Z" style="fill:#4f6bc5;stroke:#feffff;stroke-width:0.17px;"/><path id="use22146-5" d="M173.995,145.495l-26.294,0.585l3.937,26.281l26.294,-0.585l-3.937,-26.281Z" style="fill:#5479c0;stroke:#feffff;stroke-width:0.17px;"/><path id="use22148-4" d="M177.932,171.777l-26.294,0.584l3.937,26.282l26.294,-0.585l-3.937,-26.281Z" style="fill:#5a85ba;stroke:#feffff;stroke-width:0.17px;"/><path id="use22150-9" d="M188.479,66.066l-26.294,0.585l3.937,26.281l26.294,-0.584l-3.937,-26.282Z" style="fill:#495bcb;stroke:#feffff;stroke-width:0.17px;"/><path id="use22152-2" d="M192.416,92.348l-26.294,0.584l3.937,26.282l26.294,-0.585l-3.937,-26.281Z" style="fill:#4f6bc5;stroke:#feffff;stroke-width:0.17px;"/><path id="use22154-5" d="M196.353,118.629l-26.294,0.585l3.936,26.281l26.295,-0.584l-3.937,-26.282Z" style="fill:#5479c0;stroke:#feffff;stroke-width:0.17px;"/><path id="use22156-7" d="M200.29,144.91l-26.295,0.585l3.937,26.281l26.295,-0.584l-3.937,-26.282Z" style="fill:#5a85ba;stroke:#feffff;stroke-width:0.17px;"/><path id="use22158-4" d="M204.227,171.192l-26.295,0.584l3.937,26.282l26.295,-0.585l-3.937,-26.281Z" style="fill:#608eb4;stroke:#feffff;stroke-width:0.17px;"/><path id="use22160-9" d="M214.774,65.481l-26.295,0.585l3.937,26.282l26.295,-0.585l-3.937,-26.282Z" style="fill:#4f6bc5;stroke:#feffff;stroke-width:0.17px;"/><path id="use22162-9" d="M218.711,91.763l-26.295,0.585l3.937,26.281l26.295,-0.585l-3.937,-26.281Z" style="fill:#5479c0;stroke:#feffff;stroke-width:0.17px;"/><path id="use22164-4" d="M222.648,118.044l-26.295,0.585l3.937,26.282l26.295,-0.585l-3.937,-26.282Z" style="fill:#5a85ba;stroke:#feffff;stroke-width:0.17px;"/><path id="use22166-5" d="M226.584,144.326l-26.294,0.584l3.937,26.282l26.294,-0.585l-3.937,-26.281Z" style="fill:#608eb4;stroke:#feffff;stroke-width:0.17px;"/><path id="use22168-9" d="M230.521,170.607l-26.294,0.585l3.937,26.281l26.294,-0.584l-3.937,-26.282Z" style="fill:#6695ae;stroke:#feffff;stroke-width:0.17px;"/><path id="use22170-3" d="M241.068,64.897l-26.294,0.584l3.937,26.282l26.294,-0.585l-3.937,-26.281Z" style="fill:#5479c0;stroke:#feffff;stroke-width:0.17px;"/><path id="use22172-5" d="M245.005,91.178l-26.294,0.585l3.937,26.281l26.294,-0.584l-3.937,-26.282Z" style="fill:#5a85ba;stroke:#feffff;stroke-width:0.17px;"/><path id="use22174-7" d="M248.942,117.46l-26.294,0.584l3.937,26.282l26.294,-0.585l-3.937,-26.281Z" style="fill:#608eb4;stroke:#feffff;stroke-width:0.17px;"/><path id="use22176-0" d="M252.879,143.741l-26.294,0.585l3.937,26.281l26.294,-0.585l-3.937,-26.281Z" style="fill:#6695ae;stroke:#feffff;stroke-width:0.17px;"/><path id="use22178-8" d="M256.816,170.022l-26.294,0.585l3.937,26.282l26.294,-0.585l-3.937,-26.282Z" style="fill:#6c99a8;stroke:#feffff;stroke-width:0.17px;"/></g></svg>