<?xml version="1.0" encoding="UTF-8" standalone="no"?>
<svg
   xmlns:dc="http://purl.org/dc/elements/1.1/"
   xmlns:cc="http://creativecommons.org/ns#"
   xmlns:rdf="http://www.w3.org/1999/02/22-rdf-syntax-ns#"
   xmlns:svg="http://www.w3.org/2000/svg"
   xmlns="http://www.w3.org/2000/svg"
   version="1.1"
   id="svg2"
   viewBox="0 0 90.115221 90.221664"
   height="25.462559mm"
   width="25.432518mm">
  <defs
     id="defs4">
    <linearGradient
       gradientUnits="userSpaceOnUse"
       gradientTransform="matrix(0.99940988,0,0,1.0005905,-173.1653,-2.8374842)"
       x1="38.940807"
       y1="0.7002607"
       x2="38.940807"
       y2="77.178993"
       id="linearGradient-2-3-2-0">
      <stop
         stop-color="#FFFFFF"
         offset="0%"
         id="stop3511-6-3-10" />
      <stop
         stop-color="#ECECEC"
         offset="100%"
         id="stop3513-7-7-1" />
    </linearGradient>
    <filter
       x="-0.090000004"
       y="-0.064000003"
       width="1.179"
       height="1.179"
       filterUnits="objectBoundingBox"
       id="filter-1-5-5-3">
      <feOffset
         dx="0"
         dy="2"
         in="SourceAlpha"
         result="shadowOffsetOuter1"
         id="feOffset3498-3-9-7" />
      <feGaussianBlur
         stdDeviation="2"
         in="shadowOffsetOuter1"
         result="shadowBlurOuter1"
         id="feGaussianBlur3500-5-2-7" />
      <feColorMatrix
         values="0 0 0 0 0   0 0 0 0 0   0 0 0 0 0  0 0 0 0.5 0"
         type="matrix"
         in="shadowBlurOuter1"
         result="shadowMatrixOuter1"
         id="feColorMatrix3502-6-2-2" />
      <feMerge
         id="feMerge3504-2-8-6">
        <feMergeNode
           in="shadowMatrixOuter1"
           id="feMergeNode3506-9-9-4" />
        <feMergeNode
           in="SourceGraphic"
           id="feMergeNode3508-1-7-5" />
      </feMerge>
    </filter>
  </defs>
  <metadata
     id="metadata7">
    <rdf:RDF>
      <cc:Work
         rdf:about="">
        <dc:format>image/svg+xml</dc:format>
        <dc:type
           rdf:resource="http://purl.org/dc/dcmitype/StillImage" />
        <dc:title></dc:title>
      </cc:Work>
    </rdf:RDF>
  </metadata>
  <g
     transform="translate(179.34332,7.0343434)"
     id="layer1">
    <path
       id="Mask-2-3-2"
       d="m -134.2475,74.387076 c 21.1065,0 38.216802,-17.13046 38.216802,-38.26195 0,-21.13148 -17.110302,-38.2619402 -38.216802,-38.2619402 -21.1066,0 -38.2168,17.1304602 -38.2168,38.2619402 0,21.13149 17.1102,38.26195 38.2168,38.26195 z"
       style="fill:url(#linearGradient-2-3-2-0);fill-rule:nonzero;stroke:none;stroke-width:1;filter:url(#filter-1-5-5-3)" />
    <rect
       transform="matrix(0.91450641,-0.4045714,0.5443788,0.83883951,0,0)"
       style="display:inline;fill:#ffff5a;fill-opacity:1;stroke:#feffff;stroke-width:0.04797364;stroke-miterlimit:4;stroke-dasharray:none;stroke-opacity:1"
       id="use22354-6"
       width="6.9766459"
       height="9.0589638"
       x="-157.35025"
       y="-47.035423" />
    <rect
       transform="matrix(0.91450641,-0.4045714,0.5443788,0.83883951,0,0)"
       style="display:inline;fill:#fbf05e;fill-opacity:1;stroke:#feffff;stroke-width:0.04797364;stroke-miterlimit:4;stroke-dasharray:none;stroke-opacity:1"
       id="use22356-7"
       width="6.9766459"
       height="9.0589638"
       x="-157.35025"
       y="-37.976463" />
    <rect
       transform="matrix(0.91450641,-0.4045714,0.5443788,0.83883951,0,0)"
       style="display:inline;fill:#f7e162;fill-opacity:1;stroke:#feffff;stroke-width:0.04797364;stroke-miterlimit:4;stroke-dasharray:none;stroke-opacity:1"
       id="use22358-7"
       width="6.9766459"
       height="9.0589638"
       x="-157.35025"
       y="-28.917503" />
    <rect
       transform="matrix(0.91450641,-0.4045714,0.5443788,0.83883951,0,0)"
       style="display:inline;fill:#f3d466;fill-opacity:1;stroke:#feffff;stroke-width:0.04797364;stroke-miterlimit:4;stroke-dasharray:none;stroke-opacity:1"
       id="use22360-4"
       width="6.9766459"
       height="9.0589638"
       x="-157.35025"
       y="-19.858543" />
    <rect
       transform="matrix(0.91450641,-0.4045714,0.5443788,0.83883951,0,0)"
       style="display:inline;fill:#eec86b;fill-opacity:1;stroke:#feffff;stroke-width:0.04797364;stroke-miterlimit:4;stroke-dasharray:none;stroke-opacity:1"
       id="use22362-0"
       width="6.9766459"
       height="9.0589638"
       x="-157.35025"
       y="-10.799584" />
    <rect
       transform="matrix(0.91450641,-0.4045714,0.5443788,0.83883951,0,0)"
       style="display:inline;fill:#fbf05e;fill-opacity:1;stroke:#feffff;stroke-width:0.04797364;stroke-miterlimit:4;stroke-dasharray:none;stroke-opacity:1"
       id="use22364-6"
       width="6.9766459"
       height="9.0589638"
       x="-150.37363"
       y="-47.035423" />
    <rect
       transform="matrix(0.91450641,-0.4045714,0.5443788,0.83883951,0,0)"
       style="display:inline;fill:#f7e162;fill-opacity:1;stroke:#feffff;stroke-width:0.04797364;stroke-miterlimit:4;stroke-dasharray:none;stroke-opacity:1"
       id="use22366-4"
       width="6.9766459"
       height="9.0589638"
       x="-150.37363"
       y="-37.976463" />
    <rect
       transform="matrix(0.91450641,-0.4045714,0.5443788,0.83883951,0,0)"
       style="display:inline;fill:#f3d466;fill-opacity:1;stroke:#feffff;stroke-width:0.04797364;stroke-miterlimit:4;stroke-dasharray:none;stroke-opacity:1"
       id="use22368-7"
       width="6.9766459"
       height="9.0589638"
       x="-150.37363"
       y="-28.917503" />
    <rect
       transform="matrix(0.91450641,-0.4045714,0.5443788,0.83883951,0,0)"
       style="display:inline;fill:#eec86b;fill-opacity:1;stroke:#feffff;stroke-width:0.04797364;stroke-miterlimit:4;stroke-dasharray:none;stroke-opacity:1"
       id="use22370-4"
       width="6.9766459"
       height="9.0589638"
       x="-150.37363"
       y="-19.858543" />
    <rect
       transform="matrix(0.91450641,-0.4045714,0.5443788,0.83883951,0,0)"
       style="display:inline;fill:#eabe6f;fill-opacity:1;stroke:#feffff;stroke-width:0.04797364;stroke-miterlimit:4;stroke-dasharray:none;stroke-opacity:1"
       id="use22372-8"
       width="6.9766459"
       height="9.0589638"
       x="-150.37363"
       y="-10.799584" />
    <rect
       transform="matrix(0.91450641,-0.4045714,0.5443788,0.83883951,0,0)"
       style="display:inline;fill:#f7e162;fill-opacity:1;stroke:#feffff;stroke-width:0.04797364;stroke-miterlimit:4;stroke-dasharray:none;stroke-opacity:1"
       id="use22374-5"
       width="6.9766459"
       height="9.0589638"
       x="-143.397"
       y="-47.035423" />
    <rect
       transform="matrix(0.91450641,-0.4045714,0.5443788,0.83883951,0,0)"
       style="display:inline;fill:#f3d466;fill-opacity:1;stroke:#feffff;stroke-width:0.04797364;stroke-miterlimit:4;stroke-dasharray:none;stroke-opacity:1"
       id="use22376-8"
       width="6.9766459"
       height="9.0589638"
       x="-143.397"
       y="-37.976463" />
    <rect
       transform="matrix(0.91450641,-0.4045714,0.5443788,0.83883951,0,0)"
       style="display:inline;fill:#eec86b;fill-opacity:1;stroke:#feffff;stroke-width:0.04797364;stroke-miterlimit:4;stroke-dasharray:none;stroke-opacity:1"
       id="use22378-2"
       width="6.9766459"
       height="9.0589638"
       x="-143.397"
       y="-28.917503" />
    <rect
       transform="matrix(0.91450641,-0.4045714,0.5443788,0.83883951,0,0)"
       style="display:inline;fill:#eabe6f;fill-opacity:1;stroke:#feffff;stroke-width:0.04797364;stroke-miterlimit:4;stroke-dasharray:none;stroke-opacity:1"
       id="use22380-6"
       width="6.9766459"
       height="9.0589638"
       x="-143.397"
       y="-19.858543" />
    <rect
       transform="matrix(0.91450641,-0.4045714,0.5443788,0.83883951,0,0)"
       style="display:inline;fill:#e6b473;fill-opacity:1;stroke:#feffff;stroke-width:0.04797364;stroke-miterlimit:4;stroke-dasharray:none;stroke-opacity:1"
       id="use22382-0"
       width="6.9766459"
       height="9.0589638"
       x="-143.397"
       y="-10.799584" />
    <rect
       transform="matrix(0.91450641,-0.4045714,0.5443788,0.83883951,0,0)"
       style="display:inline;fill:#f3d466;fill-opacity:1;stroke:#feffff;stroke-width:0.04797364;stroke-miterlimit:4;stroke-dasharray:none;stroke-opacity:1"
       id="use22384-6"
       width="6.9766459"
       height="9.0589638"
       x="-136.42032"
       y="-47.035423" />
    <rect
       transform="matrix(0.91450641,-0.4045714,0.5443788,0.83883951,0,0)"
       style="display:inline;fill:#eec86b;fill-opacity:1;stroke:#feffff;stroke-width:0.04797364;stroke-miterlimit:4;stroke-dasharray:none;stroke-opacity:1"
       id="use22386-6"
       width="6.9766459"
       height="9.0589638"
       x="-136.42032"
       y="-37.976463" />
    <rect
       transform="matrix(0.91450641,-0.4045714,0.5443788,0.83883951,0,0)"
       style="display:inline;fill:#eabe6f;fill-opacity:1;stroke:#feffff;stroke-width:0.04797364;stroke-miterlimit:4;stroke-dasharray:none;stroke-opacity:1"
       id="use22388-4"
       width="6.9766459"
       height="9.0589638"
       x="-136.42032"
       y="-28.917503" />
    <rect
       transform="matrix(0.91450641,-0.4045714,0.5443788,0.83883951,0,0)"
       style="display:inline;fill:#e6b473;fill-opacity:1;stroke:#feffff;stroke-width:0.04797364;stroke-miterlimit:4;stroke-dasharray:none;stroke-opacity:1"
       id="use22390-6"
       width="6.9766459"
       height="9.0589638"
       x="-136.42032"
       y="-19.858543" />
    <rect
       transform="matrix(0.91450641,-0.4045714,0.5443788,0.83883951,0,0)"
       style="display:inline;fill:#e2ac77;fill-opacity:1;stroke:#feffff;stroke-width:0.04797364;stroke-miterlimit:4;stroke-dasharray:none;stroke-opacity:1"
       id="use22392-2"
       width="6.9766459"
       height="9.0589638"
       x="-136.42032"
       y="-10.799584" />
    <rect
       transform="matrix(0.91450641,-0.4045714,0.5443788,0.83883951,0,0)"
       style="display:inline;fill:#eec86b;fill-opacity:1;stroke:#feffff;stroke-width:0.04797364;stroke-miterlimit:4;stroke-dasharray:none;stroke-opacity:1"
       id="use22394-8"
       width="6.9766459"
       height="9.0589638"
       x="-129.4437"
       y="-47.035423" />
    <rect
       transform="matrix(0.91450641,-0.4045714,0.5443788,0.83883951,0,0)"
       style="display:inline;fill:#eabe6f;fill-opacity:1;stroke:#feffff;stroke-width:0.04797364;stroke-miterlimit:4;stroke-dasharray:none;stroke-opacity:1"
       id="use22396-9"
       width="6.9766459"
       height="9.0589638"
       x="-129.4437"
       y="-37.976463" />
    <rect
       transform="matrix(0.91450641,-0.4045714,0.5443788,0.83883951,0,0)"
       style="display:inline;fill:#e6b473;fill-opacity:1;stroke:#feffff;stroke-width:0.04797364;stroke-miterlimit:4;stroke-dasharray:none;stroke-opacity:1"
       id="use22398-6"
       width="6.9766459"
       height="9.0589638"
       x="-129.4437"
       y="-28.917503" />
    <rect
       transform="matrix(0.91450641,-0.4045714,0.5443788,0.83883951,0,0)"
       style="display:inline;fill:#e2ac77;fill-opacity:1;stroke:#feffff;stroke-width:0.04797364;stroke-miterlimit:4;stroke-dasharray:none;stroke-opacity:1"
       id="use22400-0"
       width="6.9766459"
       height="9.0589638"
       x="-129.4437"
       y="-19.858543" />
    <rect
       transform="matrix(0.91450641,-0.4045714,0.5443788,0.83883951,0,0)"
       style="display:inline;fill:#dea57b;fill-opacity:1;stroke:#feffff;stroke-width:0.04797364;stroke-miterlimit:4;stroke-dasharray:none;stroke-opacity:1"
       id="use22402-7"
       width="6.9766459"
       height="9.0589638"
       x="-129.4437"
       y="-10.799584" />
    <rect
       transform="matrix(0.97643045,-0.21583227,0.34877067,0.9372081,0,0)"
       style="display:inline;fill:#49a57f;fill-opacity:1;stroke:#feffff;stroke-width:0.0479002;stroke-miterlimit:4;stroke-dasharray:none;stroke-opacity:1"
       id="use22619-9"
       width="7.5944033"
       height="8.2966118"
       x="-156.21202"
       y="-17.503094" />
    <rect
       transform="matrix(0.97643045,-0.21583227,0.34877067,0.9372081,0,0)"
       style="display:inline;fill:#4fa491;fill-opacity:1;stroke:#feffff;stroke-width:0.0479002;stroke-miterlimit:4;stroke-dasharray:none;stroke-opacity:1"
       id="use22621-9"
       width="7.5944033"
       height="8.2966118"
       x="-156.21202"
       y="-9.206461" />
    <rect
       transform="matrix(0.97643045,-0.21583227,0.34877067,0.9372081,0,0)"
       style="display:inline;fill:#56a2a0;fill-opacity:1;stroke:#feffff;stroke-width:0.0479002;stroke-miterlimit:4;stroke-dasharray:none;stroke-opacity:1"
       id="use22623-7"
       width="7.5944033"
       height="8.2966118"
       x="-156.21202"
       y="-0.90989137" />
    <rect
       transform="matrix(0.97643045,-0.21583227,0.34877067,0.9372081,0,0)"
       style="display:inline;fill:#5d95a0;fill-opacity:1;stroke:#feffff;stroke-width:0.0479002;stroke-miterlimit:4;stroke-dasharray:none;stroke-opacity:1"
       id="use22625-8"
       width="7.5944033"
       height="8.2966118"
       x="-156.21202"
       y="7.3867393" />
    <rect
       transform="matrix(0.97643045,-0.21583227,0.34877067,0.9372081,0,0)"
       style="display:inline;fill:#65899e;fill-opacity:1;stroke:#feffff;stroke-width:0.0479002;stroke-miterlimit:4;stroke-dasharray:none;stroke-opacity:1"
       id="use22627-2"
       width="7.5944033"
       height="8.2966118"
       x="-156.21202"
       y="15.683371" />
    <rect
       transform="matrix(0.97643045,-0.21583227,0.34877067,0.9372081,0,0)"
       style="display:inline;fill:#4fa491;fill-opacity:1;stroke:#feffff;stroke-width:0.0479002;stroke-miterlimit:4;stroke-dasharray:none;stroke-opacity:1"
       id="use22629-5"
       width="7.5944033"
       height="8.2966118"
       x="-148.6176"
       y="-17.503094" />
    <rect
       transform="matrix(0.97643045,-0.21583227,0.34877067,0.9372081,0,0)"
       style="display:inline;fill:#56a2a0;fill-opacity:1;stroke:#feffff;stroke-width:0.0479002;stroke-miterlimit:4;stroke-dasharray:none;stroke-opacity:1"
       id="use22631-3"
       width="7.5944033"
       height="8.2966118"
       x="-148.6176"
       y="-9.206461" />
    <rect
       transform="matrix(0.97643045,-0.21583227,0.34877067,0.9372081,0,0)"
       style="display:inline;fill:#5d95a0;fill-opacity:1;stroke:#feffff;stroke-width:0.0479002;stroke-miterlimit:4;stroke-dasharray:none;stroke-opacity:1"
       id="use22633-4"
       width="7.5944033"
       height="8.2966118"
       x="-148.6176"
       y="-0.90989137" />
    <rect
       transform="matrix(0.97643045,-0.21583227,0.34877067,0.9372081,0,0)"
       style="display:inline;fill:#65899e;fill-opacity:1;stroke:#feffff;stroke-width:0.0479002;stroke-miterlimit:4;stroke-dasharray:none;stroke-opacity:1"
       id="use22635-9"
       width="7.5944033"
       height="8.2966118"
       x="-148.6176"
       y="7.3867393" />
    <rect
       transform="matrix(0.97643045,-0.21583227,0.34877067,0.9372081,0,0)"
       style="display:inline;fill:#6d829b;fill-opacity:1;stroke:#feffff;stroke-width:0.0479002;stroke-miterlimit:4;stroke-dasharray:none;stroke-opacity:1"
       id="use22637-0"
       width="7.5944033"
       height="8.2966118"
       x="-148.6176"
       y="15.683371" />
    <rect
       transform="matrix(0.97643045,-0.21583227,0.34877067,0.9372081,0,0)"
       style="display:inline;fill:#56a2a0;fill-opacity:1;stroke:#feffff;stroke-width:0.0479002;stroke-miterlimit:4;stroke-dasharray:none;stroke-opacity:1"
       id="use22639-2"
       width="7.5944033"
       height="8.2966118"
       x="-141.02324"
       y="-17.503094" />
    <rect
       transform="matrix(0.97643045,-0.21583227,0.34877067,0.9372081,0,0)"
       style="display:inline;fill:#5d95a0;fill-opacity:1;stroke:#feffff;stroke-width:0.0479002;stroke-miterlimit:4;stroke-dasharray:none;stroke-opacity:1"
       id="use22641-0"
       width="7.5944033"
       height="8.2966118"
       x="-141.02324"
       y="-9.206461" />
    <rect
       transform="matrix(0.97643045,-0.21583227,0.34877067,0.9372081,0,0)"
       style="display:inline;fill:#65899e;fill-opacity:1;stroke:#feffff;stroke-width:0.0479002;stroke-miterlimit:4;stroke-dasharray:none;stroke-opacity:1"
       id="use22643-1"
       width="7.5944033"
       height="8.2966118"
       x="-141.02324"
       y="-0.90989137" />
    <rect
       transform="matrix(0.97643045,-0.21583227,0.34877067,0.9372081,0,0)"
       style="display:inline;fill:#6d829b;fill-opacity:1;stroke:#feffff;stroke-width:0.0479002;stroke-miterlimit:4;stroke-dasharray:none;stroke-opacity:1"
       id="use22645-9"
       width="7.5944033"
       height="8.2966118"
       x="-141.02324"
       y="7.3867393" />
    <rect
       transform="matrix(0.97643045,-0.21583227,0.34877067,0.9372081,0,0)"
       style="display:inline;fill:#757e98;fill-opacity:1;stroke:#feffff;stroke-width:0.0479002;stroke-miterlimit:4;stroke-dasharray:none;stroke-opacity:1"
       id="use22647-6"
       width="7.5944033"
       height="8.2966118"
       x="-141.02324"
       y="15.683371" />
    <rect
       transform="matrix(0.97643045,-0.21583227,0.34877067,0.9372081,0,0)"
       style="display:inline;fill:#5d95a0;fill-opacity:1;stroke:#feffff;stroke-width:0.0479002;stroke-miterlimit:4;stroke-dasharray:none;stroke-opacity:1"
       id="use22649-2"
       width="7.5944033"
       height="8.2966118"
       x="-133.42882"
       y="-17.503094" />
    <rect
       transform="matrix(0.97643045,-0.21583227,0.34877067,0.9372081,0,0)"
       style="display:inline;fill:#65899e;fill-opacity:1;stroke:#feffff;stroke-width:0.0479002;stroke-miterlimit:4;stroke-dasharray:none;stroke-opacity:1"
       id="use22651-1"
       width="7.5944033"
       height="8.2966118"
       x="-133.42882"
       y="-9.206461" />
    <rect
       transform="matrix(0.97643045,-0.21583227,0.34877067,0.9372081,0,0)"
       style="display:inline;fill:#6d829b;fill-opacity:1;stroke:#feffff;stroke-width:0.0479002;stroke-miterlimit:4;stroke-dasharray:none;stroke-opacity:1"
       id="use22653-2"
       width="7.5944033"
       height="8.2966118"
       x="-133.42882"
       y="-0.90989137" />
    <rect
       transform="matrix(0.97643045,-0.21583227,0.34877067,0.9372081,0,0)"
       style="display:inline;fill:#757e98;fill-opacity:1;stroke:#feffff;stroke-width:0.0479002;stroke-miterlimit:4;stroke-dasharray:none;stroke-opacity:1"
       id="use22655-0"
       width="7.5944033"
       height="8.2966118"
       x="-133.42882"
       y="7.3867393" />
    <rect
       transform="matrix(0.97643045,-0.21583227,0.34877067,0.9372081,0,0)"
       style="display:inline;fill:#7c7e95;fill-opacity:1;stroke:#feffff;stroke-width:0.0479002;stroke-miterlimit:4;stroke-dasharray:none;stroke-opacity:1"
       id="use22657-7"
       width="7.5944033"
       height="8.2966118"
       x="-133.42882"
       y="15.683371" />
    <rect
       transform="matrix(0.97643045,-0.21583227,0.34877067,0.9372081,0,0)"
       style="display:inline;fill:#65899e;fill-opacity:1;stroke:#feffff;stroke-width:0.0479002;stroke-miterlimit:4;stroke-dasharray:none;stroke-opacity:1"
       id="use22659-3"
       width="7.5944033"
       height="8.2966118"
       x="-125.8344"
       y="-17.503094" />
    <rect
       transform="matrix(0.97643045,-0.21583227,0.34877067,0.9372081,0,0)"
       style="display:inline;fill:#6d829b;fill-opacity:1;stroke:#feffff;stroke-width:0.0479002;stroke-miterlimit:4;stroke-dasharray:none;stroke-opacity:1"
       id="use22661-1"
       width="7.5944033"
       height="8.2966118"
       x="-125.8344"
       y="-9.206461" />
    <rect
       transform="matrix(0.97643045,-0.21583227,0.34877067,0.9372081,0,0)"
       style="display:inline;fill:#757e98;fill-opacity:1;stroke:#feffff;stroke-width:0.0479002;stroke-miterlimit:4;stroke-dasharray:none;stroke-opacity:1"
       id="use22663-1"
       width="7.5944033"
       height="8.2966118"
       x="-125.8344"
       y="-0.90989137" />
    <rect
       transform="matrix(0.97643045,-0.21583227,0.34877067,0.9372081,0,0)"
       style="display:inline;fill:#7c7e95;fill-opacity:1;stroke:#feffff;stroke-width:0.0479002;stroke-miterlimit:4;stroke-dasharray:none;stroke-opacity:1"
       id="use22665-9"
       width="7.5944033"
       height="8.2966118"
       x="-125.8344"
       y="7.3867393" />
    <rect
       transform="matrix(0.97643045,-0.21583227,0.34877067,0.9372081,0,0)"
       style="display:inline;fill:#868493;fill-opacity:1;stroke:#feffff;stroke-width:0.0479002;stroke-miterlimit:4;stroke-dasharray:none;stroke-opacity:1"
       id="use22667-0"
       width="7.5944033"
       height="8.2966118"
       x="-125.8344"
       y="15.683371" />
    <rect
       transform="matrix(0.99975288,-0.02223008,0.14814699,0.98896535,0,0)"
       style="display:inline;fill:#473dd7;fill-opacity:1;stroke:#feffff;stroke-width:0.04786107;stroke-miterlimit:4;stroke-dasharray:none;stroke-opacity:1"
       id="use22130-8"
       width="7.8903432"
       height="7.9723954"
       x="-147.99858"
       y="10.364182" />
    <rect
       transform="matrix(0.99975288,-0.02223008,0.14814699,0.98896535,0,0)"
       style="display:inline;fill:#4348d1;fill-opacity:1;stroke:#feffff;stroke-width:0.04786107;stroke-miterlimit:4;stroke-dasharray:none;stroke-opacity:1"
       id="use22132-3"
       width="7.8903432"
       height="7.9723954"
       x="-147.99858"
       y="18.336594" />
    <rect
       transform="matrix(0.99975288,-0.02223008,0.14814699,0.98896535,0,0)"
       style="display:inline;fill:#495bcb;fill-opacity:1;stroke:#feffff;stroke-width:0.04786107;stroke-miterlimit:4;stroke-dasharray:none;stroke-opacity:1"
       id="use22134-0"
       width="7.8903432"
       height="7.9723954"
       x="-147.99858"
       y="26.309006" />
    <rect
       transform="matrix(0.99975288,-0.02223008,0.14814699,0.98896535,0,0)"
       style="display:inline;fill:#4f6bc5;fill-opacity:1;stroke:#feffff;stroke-width:0.04786107;stroke-miterlimit:4;stroke-dasharray:none;stroke-opacity:1"
       id="use22136-1"
       width="7.8903432"
       height="7.9723954"
       x="-147.99858"
       y="34.281357" />
    <rect
       transform="matrix(0.99975288,-0.02223008,0.14814699,0.98896535,0,0)"
       style="display:inline;fill:#5479c0;fill-opacity:1;stroke:#feffff;stroke-width:0.04786107;stroke-miterlimit:4;stroke-dasharray:none;stroke-opacity:1"
       id="use22138-7"
       width="7.8903432"
       height="7.9723954"
       x="-147.99858"
       y="42.253769" />
    <rect
       transform="matrix(0.99975288,-0.02223008,0.14814699,0.98896535,0,0)"
       style="display:inline;fill:#4348d1;fill-opacity:1;stroke:#feffff;stroke-width:0.04786107;stroke-miterlimit:4;stroke-dasharray:none;stroke-opacity:1"
       id="use22140-8"
       width="7.8903432"
       height="7.9723954"
       x="-140.1082"
       y="10.364182" />
    <rect
       transform="matrix(0.99975288,-0.02223008,0.14814699,0.98896535,0,0)"
       style="display:inline;fill:#495bcb;fill-opacity:1;stroke:#feffff;stroke-width:0.04786107;stroke-miterlimit:4;stroke-dasharray:none;stroke-opacity:1"
       id="use22142-9"
       width="7.8903432"
       height="7.9723954"
       x="-140.1082"
       y="18.336594" />
    <rect
       transform="matrix(0.99975288,-0.02223008,0.14814699,0.98896535,0,0)"
       style="display:inline;fill:#4f6bc5;fill-opacity:1;stroke:#feffff;stroke-width:0.04786107;stroke-miterlimit:4;stroke-dasharray:none;stroke-opacity:1"
       id="use22144-1"
       width="7.8903432"
       height="7.9723954"
       x="-140.1082"
       y="26.309006" />
    <rect
       transform="matrix(0.99975288,-0.02223008,0.14814699,0.98896535,0,0)"
       style="display:inline;fill:#5479c0;fill-opacity:1;stroke:#feffff;stroke-width:0.04786107;stroke-miterlimit:4;stroke-dasharray:none;stroke-opacity:1"
       id="use22146-5"
       width="7.8903432"
       height="7.9723954"
       x="-140.1082"
       y="34.281357" />
    <rect
       transform="matrix(0.99975288,-0.02223008,0.14814699,0.98896535,0,0)"
       style="display:inline;fill:#5a85ba;fill-opacity:1;stroke:#feffff;stroke-width:0.04786107;stroke-miterlimit:4;stroke-dasharray:none;stroke-opacity:1"
       id="use22148-4"
       width="7.8903432"
       height="7.9723954"
       x="-140.1082"
       y="42.253769" />
    <rect
       transform="matrix(0.99975288,-0.02223008,0.14814699,0.98896535,0,0)"
       style="display:inline;fill:#495bcb;fill-opacity:1;stroke:#feffff;stroke-width:0.04786107;stroke-miterlimit:4;stroke-dasharray:none;stroke-opacity:1"
       id="use22150-9"
       width="7.8903432"
       height="7.9723954"
       x="-132.21782"
       y="10.364182" />
    <rect
       transform="matrix(0.99975288,-0.02223008,0.14814699,0.98896535,0,0)"
       style="display:inline;fill:#4f6bc5;fill-opacity:1;stroke:#feffff;stroke-width:0.04786107;stroke-miterlimit:4;stroke-dasharray:none;stroke-opacity:1"
       id="use22152-2"
       width="7.8903432"
       height="7.9723954"
       x="-132.21782"
       y="18.336594" />
    <rect
       transform="matrix(0.99975288,-0.02223008,0.14814699,0.98896535,0,0)"
       style="display:inline;fill:#5479c0;fill-opacity:1;stroke:#feffff;stroke-width:0.04786107;stroke-miterlimit:4;stroke-dasharray:none;stroke-opacity:1"
       id="use22154-5"
       width="7.8903432"
       height="7.9723954"
       x="-132.21782"
       y="26.309006" />
    <rect
       transform="matrix(0.99975288,-0.02223008,0.14814699,0.98896535,0,0)"
       style="display:inline;fill:#5a85ba;fill-opacity:1;stroke:#feffff;stroke-width:0.04786107;stroke-miterlimit:4;stroke-dasharray:none;stroke-opacity:1"
       id="use22156-7"
       width="7.8903432"
       height="7.9723954"
       x="-132.21782"
       y="34.281357" />
    <rect
       transform="matrix(0.99975288,-0.02223008,0.14814699,0.98896535,0,0)"
       style="display:inline;fill:#608eb4;fill-opacity:1;stroke:#feffff;stroke-width:0.04786107;stroke-miterlimit:4;stroke-dasharray:none;stroke-opacity:1"
       id="use22158-4"
       width="7.8903432"
       height="7.9723954"
       x="-132.21782"
       y="42.253769" />
    <rect
       transform="matrix(0.99975288,-0.02223008,0.14814699,0.98896535,0,0)"
       style="display:inline;fill:#4f6bc5;fill-opacity:1;stroke:#feffff;stroke-width:0.04786107;stroke-miterlimit:4;stroke-dasharray:none;stroke-opacity:1"
       id="use22160-9"
       width="7.8903432"
       height="7.9723954"
       x="-124.32756"
       y="10.364182" />
    <rect
       transform="matrix(0.99975288,-0.02223008,0.14814699,0.98896535,0,0)"
       style="display:inline;fill:#5479c0;fill-opacity:1;stroke:#feffff;stroke-width:0.04786107;stroke-miterlimit:4;stroke-dasharray:none;stroke-opacity:1"
       id="use22162-9"
       width="7.8903432"
       height="7.9723954"
       x="-124.32756"
       y="18.336594" />
    <rect
       transform="matrix(0.99975288,-0.02223008,0.14814699,0.98896535,0,0)"
       style="display:inline;fill:#5a85ba;fill-opacity:1;stroke:#feffff;stroke-width:0.04786107;stroke-miterlimit:4;stroke-dasharray:none;stroke-opacity:1"
       id="use22164-4"
       width="7.8903432"
       height="7.9723954"
       x="-124.32756"
       y="26.309006" />
    <rect
       transform="matrix(0.99975288,-0.02223008,0.14814699,0.98896535,0,0)"
       style="display:inline;fill:#608eb4;fill-opacity:1;stroke:#feffff;stroke-width:0.04786107;stroke-miterlimit:4;stroke-dasharray:none;stroke-opacity:1"
       id="use22166-5"
       width="7.8903432"
       height="7.9723954"
       x="-124.32756"
       y="34.281357" />
    <rect
       transform="matrix(0.99975288,-0.02223008,0.14814699,0.98896535,0,0)"
       style="display:inline;fill:#6695ae;fill-opacity:1;stroke:#feffff;stroke-width:0.04786107;stroke-miterlimit:4;stroke-dasharray:none;stroke-opacity:1"
       id="use22168-9"
       width="7.8903432"
       height="7.9723954"
       x="-124.32756"
       y="42.253769" />
    <rect
       transform="matrix(0.99975288,-0.02223008,0.14814699,0.98896535,0,0)"
       style="display:inline;fill:#5479c0;fill-opacity:1;stroke:#feffff;stroke-width:0.04786107;stroke-miterlimit:4;stroke-dasharray:none;stroke-opacity:1"
       id="use22170-3"
       width="7.8903432"
       height="7.9723954"
       x="-116.43718"
       y="10.364182" />
    <rect
       transform="matrix(0.99975288,-0.02223008,0.14814699,0.98896535,0,0)"
       style="display:inline;fill:#5a85ba;fill-opacity:1;stroke:#feffff;stroke-width:0.04786107;stroke-miterlimit:4;stroke-dasharray:none;stroke-opacity:1"
       id="use22172-5"
       width="7.8903432"
       height="7.9723954"
       x="-116.43718"
       y="18.336594" />
    <rect
       transform="matrix(0.99975288,-0.02223008,0.14814699,0.98896535,0,0)"
       style="display:inline;fill:#608eb4;fill-opacity:1;stroke:#feffff;stroke-width:0.04786107;stroke-miterlimit:4;stroke-dasharray:none;stroke-opacity:1"
       id="use22174-7"
       width="7.8903432"
       height="7.9723954"
       x="-116.43718"
       y="26.309006" />
    <rect
       transform="matrix(0.99975288,-0.02223008,0.14814699,0.98896535,0,0)"
       style="display:inline;fill:#6695ae;fill-opacity:1;stroke:#feffff;stroke-width:0.04786107;stroke-miterlimit:4;stroke-dasharray:none;stroke-opacity:1"
       id="use22176-0"
       width="7.8903432"
       height="7.9723954"
       x="-116.43718"
       y="34.281357" />
    <rect
       transform="matrix(0.99975288,-0.02223008,0.14814699,0.98896535,0,0)"
       style="display:inline;fill:#6c99a8;fill-opacity:1;stroke:#feffff;stroke-width:0.04786107;stroke-miterlimit:4;stroke-dasharray:none;stroke-opacity:1"
       id="use22178-8"
       width="7.8903432"
       height="7.9723954"
       x="-116.43718"
       y="42.253769" />
  </g>
</svg>
